<svg width="40" height="40" viewBox="0 0 40 40" fill="none" xmlns="http://www.w3.org/2000/svg">
<path d="M28.75 12.1467V14.2617C28.75 14.7567 28.3483 15.16 27.8533 15.16H25.7383C25.24 15.16 24.8417 14.7567 24.8417 14.2617V12.1467C24.8417 11.6517 25.24 11.25 25.7383 11.25H27.8533C28.3483 11.25 28.75 11.6517 28.75 12.1467ZM20 24.485C22.4767 24.485 24.4883 22.4767 24.4883 19.9983C24.4883 17.52 22.4767 15.515 20 15.515C17.5217 15.515 15.515 17.5217 15.515 20C15.515 22.4783 17.5217 24.485 20 24.485ZM27.1017 19C27.1483 19.3267 27.1783 19.66 27.1783 19.9983C27.1783 23.965 23.965 27.1783 20 27.1783C16.035 27.1783 12.8217 23.965 12.8217 20C12.8217 19.66 12.8517 19.3283 12.8983 19.0017C12.9433 18.6783 13.0083 18.3633 13.095 18.0567H11.25V27.855C11.25 28.35 11.6517 28.7517 12.1467 28.7517H27.8533C28.3483 28.7517 28.75 28.35 28.75 27.855V18.0567H26.905C26.9883 18.3633 27.055 18.6783 27.1017 19ZM40 20C40 31.045 31.045 40 20 40C8.955 40 0 31.045 0 20C0 8.955 8.955 0 20 0C31.045 0 40 8.955 40 20ZM31.6667 11.025C31.6667 9.53833 30.4617 8.33333 28.975 8.33333H11.025C9.53833 8.33333 8.33333 9.53833 8.33333 11.025V28.9733C8.33333 30.4617 9.53833 31.6667 11.025 31.6667H28.975C30.4617 31.6667 31.6667 30.4617 31.6667 28.9733V11.025Z" fill="#009CDE"/>
</svg>
