<svg width="40" height="40" viewBox="0 0 40 40" fill="none" xmlns="http://www.w3.org/2000/svg">
<path fill-rule="evenodd" clip-rule="evenodd" d="M20 0C8.95667 0 0 8.95333 0 20C0 31.045 8.95667 40 20 40C31.045 40 40 31.045 40 20C40 8.95333 31.045 0 20 0ZM31.6233 29.2617V28.87L29.8033 27.0833C29.6433 26.9617 29.5633 26.76 29.5967 26.5617V13.4383C29.5633 13.24 29.6433 13.0383 29.8033 12.9167L31.6667 11.13V10.7383H25.2183L20.6217 22.205L15.3917 10.7383H8.62667V11.13L10.8067 13.755C11.02 13.9467 11.13 14.23 11.1 14.5167V24.83C11.1633 25.2017 11.0467 25.5817 10.785 25.8533L8.33333 28.8267V29.2183H15.2833V28.8267L12.8317 25.8533C12.5683 25.5817 12.4433 25.205 12.495 24.83V15.91L18.595 29.2183H19.3033L24.5417 15.91V26.5183C24.5417 26.8017 24.5417 26.855 24.3567 27.04L22.4733 28.87V29.2617H31.6233Z" fill="#009CDE"/>
</svg>
