<svg width="40" height="40" viewBox="0 0 40 40" fill="none" xmlns="http://www.w3.org/2000/svg">
<path d="M20 0C8.95333 0 0 8.95417 0 20C0 31.0462 8.95333 40 20 40C31.0458 40 40 31.0462 40 20C40 8.95417 31.0458 0 20 0ZM28.1338 16.3842C28.1421 16.5533 28.145 16.7233 28.145 16.8942C28.145 22.0996 24.1825 28.1021 16.9375 28.1021C14.7133 28.1021 12.6429 27.4496 10.9 26.3317C11.2075 26.3687 11.5208 26.3871 11.8392 26.3871C13.685 26.3871 15.3833 25.7575 16.7317 24.7004C15.0079 24.6692 13.5529 23.53 13.0517 21.9654C13.2925 22.0108 13.5392 22.0362 13.7929 22.0362C14.1517 22.0362 14.5 21.9879 14.8304 21.8979C13.0287 21.5358 11.6704 19.9442 11.6704 18.035C11.6704 18.0183 11.6704 18.0021 11.6712 17.9858C12.2017 18.2808 12.8096 18.4579 13.455 18.4787C12.3979 17.7721 11.7029 16.5667 11.7029 15.1996C11.7029 14.4779 11.8967 13.8017 12.2358 13.2196C14.1783 15.6029 17.0812 17.1708 20.355 17.3354C20.2875 17.0471 20.2533 16.7463 20.2533 16.4375C20.2533 14.2621 22.0167 12.4987 24.1921 12.4987C25.325 12.4987 26.3487 12.9771 27.0671 13.7425C27.9646 13.5658 28.8079 13.2383 29.5687 12.7867C29.2742 13.7062 28.65 14.4787 27.8371 14.9658C28.6337 14.8704 29.3929 14.6592 30.0996 14.3458C29.5721 15.135 28.9038 15.8292 28.1338 16.3842Z" fill="#009CDE"/>
</svg>
