<svg width="1440" height="708" viewBox="0 0 1440 708" fill="none" xmlns="http://www.w3.org/2000/svg">
<g clip-path="url(#clip0)">
<mask id="mask0" mask-type="alpha" maskUnits="userSpaceOnUse" x="0" y="0" width="1441" height="707">
<path d="M0.5 0H1440.5V706.82L914 600L0.5 706.82V0Z" fill="url(#paint0_linear)"/>
</mask>
<g mask="url(#mask0)">
<path d="M0.5 0H1440.5V708H0.5V0Z" fill="url(#paint1_linear)"/>
</g>
<g opacity="0.2" clip-path="url(#clip1)">
<path fill-rule="evenodd" clip-rule="evenodd" d="M1425.66 546.89L1267.9 473.76C1247.68 464.384 1238.13 440.07 1246.57 419.452L1312.26 258.995C1320.7 238.377 1343.94 229.263 1364.17 238.639L1521.92 311.769C1542.15 321.145 1551.7 345.46 1543.26 366.078L1477.56 526.535C1469.12 547.153 1445.88 556.266 1425.66 546.89ZM1266.93 476.143C1245.41 466.169 1235.25 440.302 1244.23 418.368L1309.92 257.911C1318.9 235.977 1343.63 226.282 1365.14 236.256L1522.9 309.386C1544.41 319.361 1554.57 345.227 1545.59 367.161L1479.9 527.618C1470.92 549.552 1446.2 559.248 1424.68 549.273L1266.93 476.143Z" fill="#6AD1E3"/>
<path fill-rule="evenodd" clip-rule="evenodd" d="M1502.68 476.865L1358.47 410.013C1330.97 397.262 1317.98 364.194 1329.46 336.154L1389.31 189.963C1400.79 161.923 1432.39 149.529 1459.9 162.28L1604.11 229.132C1631.62 241.883 1644.61 274.95 1633.13 302.99L1573.28 449.181C1561.8 477.221 1530.19 489.616 1502.68 476.865ZM1357.15 413.253C1327.88 399.688 1314.06 364.51 1326.28 334.68L1386.13 188.49C1398.34 158.66 1431.96 145.474 1461.23 159.039L1605.44 225.891C1634.7 239.456 1648.52 274.634 1636.31 304.464L1576.45 450.655C1564.24 480.485 1530.62 493.67 1501.36 480.105L1357.15 413.253Z" fill="#6AD1E3"/>
</g>
<g opacity="0.2" clip-path="url(#clip2)">
<path fill-rule="evenodd" clip-rule="evenodd" d="M-9.60687 544.923L-167.015 462.087C-187.196 451.467 -195.758 426.744 -186.139 406.868L-111.282 252.181C-101.663 232.304 -77.5059 224.801 -57.325 235.421L100.083 318.257C120.264 328.877 128.826 353.599 119.208 373.476L44.3504 528.162C34.7315 548.039 10.5741 555.543 -9.60687 544.923ZM-168.127 464.384C-189.596 453.086 -198.705 426.786 -188.472 405.64L-113.615 250.954C-103.382 229.808 -77.6824 221.825 -56.2133 233.124L101.195 315.959C122.664 327.257 131.773 353.558 121.54 374.703L46.6828 529.39C36.45 550.535 10.7505 558.518 -10.7186 547.22L-168.127 464.384Z" fill="#6AD1E3"/>
<path fill-rule="evenodd" clip-rule="evenodd" d="M141.097 463.534L-41.2361 492.531C-76.0132 498.061 -109.575 474.841 -116.198 440.667L-150.728 262.494C-157.351 228.32 -134.527 196.133 -99.7503 190.602L82.5832 161.605C117.36 156.074 150.922 179.295 157.545 213.469L192.075 391.641C198.698 425.816 175.875 458.003 141.097 463.534ZM-40.4706 496.48C-77.4676 502.364 -113.171 477.662 -120.217 441.306L-154.747 263.134C-161.793 226.778 -137.513 192.536 -100.516 186.652L81.8177 157.655C118.815 151.772 154.518 176.474 161.564 212.83L196.094 391.002C203.14 427.358 178.86 461.6 141.863 467.483L-40.4706 496.48Z" fill="#6AD1E3"/>
</g>
</g>
<defs>
<linearGradient id="paint0_linear" x1="0.5" y1="706.82" x2="1502.59" y2="175.537" gradientUnits="userSpaceOnUse">
<stop stop-color="#3d4954 "/>
<stop offset="0.56326" stop-color="#30f271 "/>
<stop offset="1" stop-color="#3d4954 "/>
</linearGradient>
<linearGradient id="paint1_linear" x1="0.5" y1="708" x2="1503.14" y2="177.406" gradientUnits="userSpaceOnUse">
<stop stop-color="#fffff"/>
<stop offset="0.718841" stop-color="#30f271"/>
<stop offset="1" stop-color="#4c96d7"/>
</linearGradient>
<clipPath id="clip0">
<rect width="1440" height="708" fill="white" transform="translate(0.5)"/>
</clipPath>
<clipPath id="clip1">
<rect width="401.023" height="400" fill="white" transform="translate(1240 154)"/>
</clipPath>
<clipPath id="clip2">
<rect width="400" height="400" fill="white" transform="translate(-195 154)"/>
</clipPath>
</defs>
</svg>
